<svg width="24" height="17" viewBox="0 0 24 17" fill="none" xmlns="http://www.w3.org/2000/svg">
<path d="M1.19971 7.4751C0.578387 7.4751 0.074707 7.97878 0.074707 8.6001C0.0747071 9.22142 0.578387 9.7251 1.19971 9.7251L1.19971 7.4751ZM22.7952 9.39559C23.2345 8.95625 23.2345 8.24394 22.7952 7.8046L15.6357 0.645146C15.1964 0.205806 14.4841 0.205806 14.0448 0.645146C13.6054 1.08449 13.6054 1.7968 14.0448 2.23614L20.4087 8.6001L14.0448 14.9641C13.6054 15.4034 13.6054 16.1157 14.0448 16.555C14.4841 16.9944 15.1964 16.9944 15.6357 16.555L22.7952 9.39559ZM1.19971 8.6001L1.19971 9.7251L21.9997 9.7251L21.9997 8.6001L21.9997 7.4751L1.19971 7.4751L1.19971 8.6001Z" fill="white"/>
</svg>
