<svg width="40" height="40" viewBox="0 0 40 40" fill="none" xmlns="http://www.w3.org/2000/svg">
<path d="M27.7234 31.8522C27.7234 32.6704 28.3968 33.3337 29.2274 33.3337C30.0581 33.3337 30.7315 32.6704 30.7315 31.8522C30.7315 31.034 30.0581 30.3707 29.2274 30.3707C28.3968 30.3707 27.7234 31.034 27.7234 31.8522Z" fill="#232323"/>
<path d="M12.6828 31.8522C12.6828 32.6704 13.3561 33.3337 14.1868 33.3337C15.0175 33.3337 15.6909 32.6704 15.6909 31.8522C15.6909 31.034 15.0175 30.3707 14.1868 30.3707C13.3561 30.3707 12.6828 31.034 12.6828 31.8522Z" fill="#232323"/>
<path d="M6.6665 6.66699H7.07011C7.78271 6.66699 8.13963 6.66699 8.43027 6.79363C8.68652 6.90528 8.90561 7.08503 9.0636 7.31297C9.2425 7.57107 9.3071 7.91573 9.43604 8.60369L12.6828 25.9263L28.3578 25.9263C29.0394 25.9263 29.3813 25.9263 29.6636 25.8076C29.9131 25.7028 30.1282 25.5331 30.2879 25.3173C30.4686 25.0732 30.5451 24.7465 30.698 24.0938L30.6992 24.0892L33.0594 14.0151L33.0599 14.013C33.2919 13.0228 33.4082 12.5265 33.2805 12.1372C33.1684 11.7956 32.9327 11.506 32.62 11.3217C32.2633 11.1114 31.7479 11.1114 30.7145 11.1114H10.4267M29.2274 33.3337C28.3968 33.3337 27.7234 32.6704 27.7234 31.8522C27.7234 31.034 28.3968 30.3707 29.2274 30.3707C30.0581 30.3707 30.7315 31.034 30.7315 31.8522C30.7315 32.6704 30.0581 33.3337 29.2274 33.3337ZM14.1868 33.3337C13.3561 33.3337 12.6828 32.6704 12.6828 31.8522C12.6828 31.034 13.3561 30.3707 14.1868 30.3707C15.0175 30.3707 15.6909 31.034 15.6909 31.8522C15.6909 32.6704 15.0175 33.3337 14.1868 33.3337Z" stroke="#232323" stroke-width="2.5" stroke-linecap="round" stroke-linejoin="round"/>
</svg>
