<svg width="276" height="120" viewBox="0 0 276 120" fill="none" xmlns="http://www.w3.org/2000/svg">
<g clip-path="url(#clip0_3068_27876)">
<path d="M100.183 52.7785C83.5252 53.4137 69.9731 67.9223 69.9731 85.1195V110.915C69.9731 114.915 73.2035 118.169 77.1741 118.169C81.1468 118.169 84.3777 114.915 84.3777 110.915V84.4072C84.3777 79.6763 86.2567 75.2678 89.6697 71.9946C93.0799 68.7251 97.5271 67.0608 102.253 67.2867C111.313 67.7371 118.409 75.5093 118.409 84.981V110.915C118.409 114.915 121.64 118.169 125.61 118.169C129.583 118.169 132.814 114.915 132.814 110.915V84.4072C132.814 75.7388 129.389 67.6432 123.174 61.6141C116.96 55.5868 108.752 52.4467 100.183 52.7785Z" fill="#9FC530"/>
<path d="M55.6372 54.8672C51.6666 54.8672 48.4362 58.1217 48.4362 62.1224V88.6286C48.4362 93.3518 46.5621 97.7536 43.159 101.025C39.7617 104.294 35.2896 105.98 30.6057 105.751C21.6708 105.332 14.4028 97.3691 14.4028 88.001V62.1224C14.4028 58.1217 11.1719 54.8672 7.20138 54.8672C3.23084 54.8672 0 58.1217 0 62.1224V88.6286C0 97.287 3.41699 105.375 9.61868 111.402C15.5362 117.154 23.2338 120.28 31.4053 120.28C31.7933 120.28 32.1823 120.273 32.5724 120.259C49.26 119.653 62.8385 105.12 62.8385 87.8613V62.1224C62.8385 58.1217 59.6081 54.8672 55.6372 54.8672Z" fill="#9FC530"/>
<path d="M194.35 103.66H170.525C165.828 103.66 161.453 101.766 158.202 98.3272C154.958 94.8932 153.297 90.3912 153.529 85.6527C153.976 76.5258 161.691 69.3765 171.094 69.3765H194.35C198.322 69.3765 201.552 66.1229 201.552 62.1226C201.552 58.1219 198.322 54.8673 194.35 54.8673H170.525C161.919 54.8673 153.884 58.3158 147.897 64.5776C141.917 70.8348 138.801 79.0601 139.126 87.7384C139.757 104.519 154.16 118.169 171.23 118.169H194.35C198.322 118.169 201.552 114.915 201.552 110.914C201.552 106.914 198.322 103.66 194.35 103.66Z" fill="#9FC530"/>
<path d="M237.139 66.9864C226.447 66.9864 217.75 75.7477 217.75 86.5181C217.75 97.2881 226.447 106.05 237.139 106.05C247.83 106.05 256.528 97.2881 256.528 86.5181C256.528 75.7477 247.83 66.9864 237.139 66.9864ZM237.139 119.296C219.197 119.296 204.6 104.592 204.6 86.5181C204.6 68.4443 219.197 53.7404 237.139 53.7404C255.08 53.7404 269.677 68.4443 269.677 86.5181C269.677 104.592 255.08 119.296 237.139 119.296Z" fill="#C40755"/>
<path d="M245.308 46.7857C244.466 49.7986 244.441 49.8731 241.687 48.8759C233.979 46.0843 226.86 42.287 221.43 35.7734C217.622 31.2048 215.516 25.8387 215.008 19.7976C214.47 13.3999 215.39 7.16491 217.352 1.05108C217.665 0.0736542 218.16 -0.179062 219.072 0.118664C225.164 2.10237 230.887 4.78423 235.9 8.95474C241.343 13.4841 244.776 19.2875 246.215 26.3592C247.276 31.5787 247.087 36.8489 246.188 42.112C245.921 43.6744 245.601 45.2283 245.308 46.7857Z" fill="#9FC530"/>
<path d="M247.459 49.9241C249.038 38.7935 254.809 34.5734 260.764 32.6808C267.642 30.4086 274.821 32.682 275.759 34.4972C276.696 36.3124 274.755 39.1303 273.719 39.0226C268.43 38.4726 264.683 38.5705 259.992 39.8935C255.059 41.2854 250.418 48.3518 249.528 50.2275C249.439 50.4159 249.297 50.9614 248.875 50.8082C248.718 50.7513 248.403 50.621 247.93 50.4719C247.798 50.4303 247.408 50.3357 247.459 49.9241Z" fill="#5A3114"/>
</g>
<defs>
<clipPath id="clip0_3068_27876">
<rect width="276" height="120" fill="white"/>
</clipPath>
</defs>
</svg>
